Coordinates
version=1
nRows=7
nColumns=63
inDegrees=yes

Units are S.I. units (second, meters, Newtons, ...)
If the header above contains a line with 'inDegrees', this indicates whether rotational values are in degrees (yes) or radians (no).

endheader
time	pelvis_tilt	pelvis_list	pelvis_rotation	pelvis_tx	pelvis_ty	pelvis_tz	hip_flexion_r	hip_adduction_r	hip_rotation_r	knee_angle_r	knee_angle_r_beta	ankle_angle_r	subtalar_angle_r	mtp_angle_r	hip_flexion_l	hip_adduction_l	hip_rotation_l	knee_angle_l	knee_angle_l_beta	ankle_angle_l	subtalar_angle_l	mtp_angle_l	L5_S1_Flex_Ext	L5_S1_Lat_Bending	L5_S1_axial_rotation	L4_L5_Flex_Ext	L4_L5_Lat_Bending	L4_L5_axial_rotation	L3_L4_Flex_Ext	L3_L4_Lat_Bending	L3_L4_axial_rotation	L2_L3_Flex_Ext	L2_L3_Lat_Bending	L2_L3_axial_rotation	L1_L2_Flex_Ext	L1_L2_Lat_Bending	L1_L2_axial_rotation	L1_T12_Flex_Ext	L1_T12_Lat_Bending	L1_T12_axial_rotation	Abs_r3	Abs_r2	Abs_r1	Abs_t1	Abs_t2	neck_flexion	neck_bending	neck_rotation	arm_flex_r	arm_add_r	arm_rot_r	elbow_flex_r	pro_sup_r	wrist_flex_r	wrist_dev_r	arm_flex_l	arm_add_l	arm_rot_l	elbow_flex_l	pro_sup_l	wrist_flex_l	wrist_dev_l
     11.24200000	    -62.36060448	     -4.60354001	     -1.70432767	     -0.30118167	      1.13280479	      0.03413175	    102.44603752	     -4.73550580	     -6.48726102	     88.27433425	      1.54067778	      6.30185106	     -5.67177449	      0.00000000	    106.34390915	     -3.03286562	      1.30695448	     55.73412394	      0.97274397	     15.24300038	     -2.47650594	      0.00000000	     -0.09641410	      1.30872174	      0.48169715	     -0.17905062	      1.74059991	      0.51180322	     -0.15839872	      3.18202603	      0.51180322	     -0.11019167	      3.18202603	      0.42148501	     -0.08953013	      2.66874537	      0.39137893	     -0.05509102	      2.02720997	      0.36127286	     -0.68867625	     14.80452203	      2.67905504	      0.00000000	      0.00000000	      0.00000000	      0.00000000	      0.00000000	     67.00938677	    -10.67352649	      6.63265079	     39.81259682	     55.47331985	      0.00000000	      5.00000014	     60.62871852	     -2.51493690	     -4.46099769	     39.39526190	     54.96343822	      0.00000000	      5.00000014
     11.25000000	    -62.34632380	     -4.80954374	     -2.27593497	     -0.30041144	      1.13221298	      0.03418872	    103.29002707	     -4.34778388	     -6.60102141	     89.76111584	      1.56662701	      6.51300261	     -5.82135343	      0.00000000	    105.37191077	     -3.58228932	      1.59068337	     54.29855845	      0.94768862	     14.70116361	     -2.11520553	      0.00000000	     -0.09473154	      1.35212308	      0.57652842	     -0.17592594	      1.79832370	      0.61256145	     -0.15563444	      3.28755207	      0.61256145	     -0.10826867	      3.28755207	      0.50446237	     -0.08796771	      2.75724939	      0.46842934	     -0.05412960	      2.09443866	      0.43239632	     -0.67665790	     15.29548676	      3.20647814	      0.00000000	      0.00000000	      0.00000000	      0.00000000	      0.00000000	     67.06715012	    -10.70760977	      6.85974271	     39.76321241	     55.53835020	      0.00000000	      5.00000014	     60.45053886	     -2.45439950	     -4.54762512	     39.34275275	     54.98287715	      0.00000000	      5.00000014
     11.25800000	    -62.29523381	     -4.97426721	     -2.75417067	     -0.29954570	      1.13157540	      0.03414461	    104.14553828	     -4.05940462	     -6.66483027	     91.25724740	      1.59273943	      6.58196349	     -5.98653812	      0.00000000	    104.35978837	     -4.03808711	      1.88862151	     52.89644848	      0.92321719	     14.22627723	     -1.62366835	      0.00000000	     -0.09501378	      1.38899695	      0.65331143	     -0.17645009	      1.84736594	      0.69414339	     -0.15609814	      3.37720718	      0.69414339	     -0.10859125	      3.37720718	      0.57164750	     -0.08822980	      2.83244258	      0.53081553	     -0.05429087	      2.15155627	      0.48998357	     -0.67867393	     15.71261129	      3.63352216	      0.00000000	      0.00000000	      0.00000000	      0.00000000	      0.00000000	     67.08880357	    -10.77080291	      7.21536657	     39.72353678	     55.62621387	      0.00000000	      5.00000014	     60.29601264	     -2.38892133	     -4.69884271	     39.25450150	     54.99859322	      0.00000000	      5.00000014
     11.26700000	    -62.20732434	     -5.15464459	     -3.04109062	     -0.29868747	      1.13087118	      0.03384830	    105.04091997	     -3.97747026	     -6.73811327	     92.80681735	      1.61978453	      6.25029278	     -6.56879536	      0.00000000	    103.33287897	     -4.37578790	      2.13442024	     51.57963109	      0.90023439	     14.17141302	     -0.18113005	      0.00000000	     -0.09750484	      1.42622608	      0.69064259	     -0.18107623	      1.89688069	      0.73380775	     -0.16019070	      3.46772609	      0.73380775	     -0.11143828	      3.46772609	      0.60431226	     -0.09054299	      2.90836023	      0.56114710	     -0.05571426	      2.20922420	      0.51798194	     -0.69646730	     16.13375468	      3.84114688	      0.00000000	      0.00000000	      0.00000000	      0.00000000	      0.00000000	     67.22474969	    -11.12155104	      8.66424994	     39.69202426	     56.02368538	      0.00000000	      5.00000014	     60.11820913	     -2.19932161	     -5.37233861	     39.19322039	     55.08189107	      0.00000000	      5.00000014
     11.27500000	    -62.17886513	     -5.36355556	     -3.56698601	     -0.29788628	      1.13027907	      0.03392194	    105.91872223	     -3.65881681	     -6.87020858	     94.19258047	      1.64397066	      6.47393232	     -6.71725359	      0.00000000	    102.39805079	     -4.87063926	      2.50710616	     50.31060966	      0.87808579	     13.56936101	      0.18292537	      0.00000000	     -0.09612966	      1.46748194	      0.77986758	     -0.17852240	      1.95175098	      0.82860930	     -0.15793142	      3.56803559	      0.82860930	     -0.10986659	      3.56803559	      0.68238413	     -0.08926601	      2.99248917	      0.63364241	     -0.05492849	      2.27312952	      0.58490068	     -0.68664457	     16.60044920	      4.33738951	      0.00000000	      0.00000000	      0.00000000	      0.00000000	      0.00000000	     67.22559243	    -11.16058559	      8.82626125	     39.67455435	     56.08203076	      0.00000000	      5.00000014	     59.90337009	     -2.14191992	     -5.45366277	     39.21887452	     55.10238483	      0.00000000	      5.00000014
     11.28300000	    -62.15414929	     -5.57308240	     -3.99750439	     -0.29720154	      1.12975230	      0.03393308	    106.83383704	     -3.43352171	     -6.97443821	     95.56712438	      1.66796098	      6.62181107	     -6.83028654	      0.00000000	    101.44309463	     -5.28369919	      2.84925136	     48.99826550	      0.85518106	     13.00395278	      0.62510556	      0.00000000	     -0.09477228	      1.50705244	      0.85314848	     -0.17600160	      2.00437974	      0.90647026	     -0.15570138	      3.66424729	      0.90647026	     -0.10831524	      3.66424729	      0.74650492	     -0.08800554	      3.07318133	      0.69318314	     -0.05415288	      2.33442422	      0.63986136	     -0.67694891	     17.04807857	      4.74495591	      0.00000000	      0.00000000	      0.00000000	      0.00000000	      0.00000000	     67.21789451	    -11.22797878	      9.04263946	     39.70313147	     56.14410262	      0.00000000	      5.00000014	     59.70483540	     -2.07621169	     -5.58205224	     39.28099228	     55.11324128	      0.00000000	      5.00000014
     11.29200000	    -62.10829848	     -5.77054739	     -4.29418853	     -0.29657974	      1.12935447	      0.03384719	    107.75065110	     -3.32793511	     -7.00146591	     96.92341269	      1.69163267	      6.64571977	     -6.88747920	      0.00000000	    100.39748997	     -5.58922435	      3.15259420	     47.55465663	      0.82998533	     12.50696312	      1.26312291	      0.00000000	     -0.09805576	      1.54348700	      0.89915075	     -0.18209936	      2.05283771	      0.95534767	     -0.16109581	      3.75283429	      0.95534767	     -0.11206793	      3.75283429	      0.78675691	     -0.09105458	      3.14747869	      0.73055998	     -0.05602906	      2.39086136	      0.67436306	     -0.70040250	     17.46023362	      5.00080672	      0.00000000	      0.00000000	      0.00000000	      0.00000000	      0.00000000	     67.21111200	    -11.32285636	      9.44711866	     39.81052821	     56.23436204	      0.00000000	      5.00000014	     59.50522359	     -2.01816841	     -5.86933784	     39.41897942	     55.10420497	      0.00000000	      5.00000014
